<svg version="1.1" viewBox="0.0 0.0 720.0 720.0" fill="none" stroke="none" stroke-linecap="square" stroke-miterlimit="10" xmlns:xlink="http://www.w3.org/1999/xlink" xmlns="http://www.w3.org/2000/svg"><clipPath id="p.0"><path d="m0 0l720.0 0l0 720.0l-720.0 0l0 -720.0z" clip-rule="nonzero"/></clipPath><g clip-path="url(#p.0)"><path fill="#000000" fill-opacity="0.0" d="m0 0l720.0 0l0 720.0l-720.0 0z" fill-rule="evenodd"/><path fill="#ff791e" d="m0 360.0l360.0 -360.0l360.0 360.0l-360.0 360.0z" fill-rule="evenodd"/><path fill="#27ff80" d="m181.68329 180.586l356.62994 0l0 358.86615l-356.62994 0z" fill-rule="evenodd"/><path fill="#999999" d="m281.81506 360.02893l0 0c0 -46.10492 35.00638 -83.480316 78.188965 -83.480316l0 0c20.737 0 40.624664 8.795227 55.287964 24.450806c14.663269 15.655609 22.901001 36.88916 22.901001 59.02951l0 0c0 46.10489 -35.00638 83.480316 -78.188965 83.480316l0 0c-43.182587 0 -78.188965 -37.375427 -78.188965 -83.480316z" fill-rule="evenodd"/><path fill="#9900ff" d="m308.6838 375.95587l10.165344 -49.5365l41.157776 -22.045837l41.157745 22.045837l10.165344 49.5365l-28.482422 39.72534l-45.681366 0z" fill-rule="evenodd"/><path fill="#ffffff" d="m323.08102 346.9627l11.41861 -20.286865l19.863434 -3.3856506l13.350739 16.065094l-3.215271 23.418518l-17.360352 13.137268l-18.432312 -7.0365295z" fill-rule="evenodd"/></g></svg>